<?xml version="1.0" encoding="iso-8859-1"?>
<!-- Generator: Adobe Illustrator 12.0.0, SVG Export Plug-In . SVG Version: 6.00 Build 51448)  -->
<!DOCTYPE svg PUBLIC "-//W3C//DTD SVG 1.1 Basic//EN" "http://www.w3.org/Graphics/SVG/1.1/DTD/svg11-basic.dtd" [
	<!ENTITY ns_svg "http://www.w3.org/2000/svg">
	<!ENTITY ns_xlink "http://www.w3.org/1999/xlink">
]>
<svg  version="1.1" baseProfile="basic" id="Ebene_1" xmlns="&ns_svg;" xmlns:xlink="&ns_xlink;" width="100%" height="100%"
	 viewBox="0 0 74 74" overflow="visible" enable-background="new 0 0 74 74" xml:space="preserve">
<linearGradient id="XMLID_2_" gradientUnits="userSpaceOnUse" x1="37" y1="69" x2="37" y2="5.0005">
	<stop  offset="0" style="stop-color:#3383D1"/>
	<stop  offset="0.0166" style="stop-color:#2A7ECF"/>
	<stop  offset="0.0806" style="stop-color:#0B6BC8"/>
	<stop  offset="0.1166" style="stop-color:#0064C6"/>
	<stop  offset="0.5276" style="stop-color:#0064C6"/>
	<stop  offset="0.7791" style="stop-color:#0064C6"/>
	<stop  offset="0.8264" style="stop-color:#116ECA"/>
	<stop  offset="0.919" style="stop-color:#3B88D3"/>
	<stop  offset="1" style="stop-color:#66A2DD"/>
</linearGradient>
<path fill="url(#XMLID_2_)" d="M69,62.08C69,65.9,65.9,69,62.08,69H11.92C8.1,69,5,65.9,5,62.08V11.92C5,8.1,8.1,5,11.92,5h50.16
	C65.9,5,69,8.1,69,11.92V62.08z"/>
<path fill="#214F89" d="M5,55v7.08C5,65.9,8.1,69,11.92,69h50.16C65.9,69,69,65.9,69,62.08V55H5z"/>
<path fill="#FFFFFF" d="M35.23,17.58L38.78,23h1.78v-9h-1.78v5.37L35.23,14h-1.78v9h1.78V17.58z M29,39.95l10.67-5.37l5.33-10.74
	l-10.7,5.41L29,39.95z M41.41,27.47l-3.16,5.71l-2.51-2.53L41.41,27.47z M42.34,16.73v2.87c4.71,2.07,8,6.79,8,12.29
	c0,7.41-5.97,13.42-13.33,13.42c-7.36,0-13.33-6.01-13.33-13.42c0-5.5,3.29-10.23,8.01-12.3v-2.87C25.46,18.94,21,24.89,21,31.9
	C21,40.79,28.16,48,37,48c8.84,0,16-7.21,16-16.11C53,24.89,48.55,18.94,42.34,16.73z"/>
</svg>
